<?xml version="1.0" encoding="UTF-8"?>
<svg id="Ebene_1" data-name="Ebene 1" xmlns="http://www.w3.org/2000/svg" viewBox="0 0 417.02 554.81">
  <defs>
    <style>
      .cls-1 {
        fill: #fff;
      }
    </style>
  </defs>
  <path class="cls-1" d="M203.05,255.47c11.45,7,22.67,12.69,34.63,18.31,15.73,7.39,30.47,15.59,45.31,25.64-22.13,2.51-43.15,8.07-63.49,16.95-7.34,3.2-14.16,6.13-20.72,10.27,1.62.43,2.89-.07,4.32-.6,13.82-5.11,27.88-8.49,42.1-12.25,1.71-.45,2.58-.82,4.58-1.14l18.96-3.01c-.36-1.13.02-1.48.16-1.68.21-.31.86.02.8.25-.06.22-.52.66-.3,1.37,10.1-1.2,20.46-2.04,30.82-1.06l10.5,2.15c-10.01,2.32-19.1,4.08-28.38,7.52-15.87,5.87-30.88,13.17-45.05,22.34l-3.01,2.24c-6.22,4.62-13.49,8.29-18.5,14.98,19.57-11.49,38.71-20.95,59.92-27.65,12.62-3.99,25.08-6.05,37.75-6.17-12.3,7.55-23.38,14.32-33.68,23.28-13.32,11.59-25.56,24.37-35.54,39.35,16.79-15.34,32.9-29.48,53.01-39.74,5.75.04,12.2.54,18.41-1.43,15.46-4.91,29.5-13.05,41.78-23.42l.31-24.18c-12.19-8.46-23.72-17.35-34.1-27.24,19.28-8.14,42.28-7.43,62.7-3.79-5.9-9.53-13.29-17.48-21.58-24.62l-13.01-11.2c-1.34-.08-3.33-2.06-2.73-3.42,3.57-8.11,9.85-14.22,17.88-18.66-11.15-21.65-27.1-40.03-46.96-54.8,3.43,16,1.93,31.04-4.74,44.98l-8.34-12.83c-5.68-8.74-12.73-16.05-20.71-22.81-14.43-12.22-32.18-19.19-51.23-18.7s-38,8.08-54.74,17.16c-22.49-16.67-44.28-28.88-71.06-37.16,29.76-18.18,69.17-33.41,104.32-35.32l16.96-.92,6.27.64c17.99.67,35.25,4.74,52.07,11.41,10.3-4.89,20.11-9.98,30.83-13.78l11.48-4.08c4.42,20.32,4.58,41,.97,61.6,16.06,14.87,28.99,32.22,38.87,51.55,5.94,11.61,8.74,23.59,7.61,36.72.48,2.01,3.17,3.84,4.58,4.86l1.03,1.96c19.38,23.45,28.89,49.47,31.68,80.07-6.04-3.76-12.37-6.9-19.39-9.4-.46-10.33-1.76-20.12-5.42-30.6l-19.14,18.19-.78,14.3-.46,11.6,18.57,24.07c.16.63,1.05.63,1.23-.01l3.89-14.29c.06-.24-.5-1.32.68-.88,7.83,3.02,15.02,7.28,22.01,11.9-.02,34.85-7.68,68.83-21.99,100.52-14.38,31.86-34.69,60.06-60.71,83.36-8.54,7.65-17.42,14.28-27.13,20.3-.47.56-1.31.3-.88-.4l-6.12-26.34c-45.11,27.18-99.91,41.52-151.31,27.85-14.51-3.86-27.76-10-40.63-17.4,9.76-37.4,12.89-73.88,7.64-113.05l-14.84,15.88-7.84,8.77c-.11.13.4,1.26.28,1.22l-1.21-.4-35.55,36.82c-16.74-25.63-25.36-55.6-27.57-85.77-1.25-17.1-.02-33.41,2.61-50.95-11.39,5.79-21.28,12.02-31.73,18.68-.12-22.88,3.49-45.36,10.35-67.46,11.99-38.64,31.46-74.22,57.51-105.84,4.57,15.19,10.55,29.57,19.55,42.95l-5.59-22.37c-7.09-28.36-10.59-60.11.25-87.4,8.53,1.53,16.08,3.67,23.92,6.62,25.58,9.61,48.27,24.39,67.52,43.81,2.67.8,4.43,2.51,5,5.16l4.59,4.68c3.72,3.79,5,8.53,6.59,13.38,2.79,8.52,6.59,16.29,8.51,25.1l-13.94,19.56c5.67,5.67,11.89,9.7,18.79,13.92ZM117.64,212.65c-.32-2.32,1.91-1.98,2.69-2.66,9.26-8.05,18.62-15.3,29.23-21.33l-10.6-13.08c-12.86-14.48-28.08-26.18-46.22-35.01-1.83,11.33-1.27,22.52.44,33.34.85-1.43.21-2.61.76-3.39.98,1.68-.5,3.25-.65,4.71,2.23,16.48,7.12,32.08,14.33,47.06l10.01-9.65ZM352.08,412.49c12.65-10.68,21.59-23.7,27.78-37.97l3.12-7.19c-2.81-8.32-7.57-15.35-13.8-21.65-8.84-3.34-18.11-2.2-26.19,2.92l-36.17,23,22.26,30.08,21.52-10.19,1.47,21Z"/>
  <g>
    <path class="cls-1" d="M103.4,110.21c-7.03-22.67-15.99-43.73-30.8-63.76,6.8,2.72,12.91,6.22,19.25,9.89.54-.31,1.34-.5,1.74-.45s.26,1.14.21,1.88c7.38,4.12,13.88,9.72,21.44,14.9l-4.83-34.22-2.75-20.59,13.49,9.13,44.64,30.9,8.85-25.66,7.37-21.02,4.28-11.2,32.87,52.43L267.01.04l.54,9.3,4.47,46.24c10.71-13.69,22.05-26.07,35.97-36.16-9.78,21.24-13.66,43.66-16.15,66.42-17.13-5.7-34.26-9.7-52.46-10.87-47.16-3.02-94.55,10.53-135.97,35.23Z"/>
    <path class="cls-1" d="M306.2,255.09c-8.08-5.9-16.35-10.9-25.71-14.02l-14.99-3.45c-12.4-2.86-23.47-8.47-32.55-17.85,20.77-17.37,47.65-14.31,63.58,7.72,7.87,10.88,14.18,22.35,19.17,34.55l-9.51-6.94Z"/>
    <path class="cls-1" d="M417.02,342.56c-6.38-6.6-13.36-12.48-21.12-17.69l.68-7.55c6.87.23,12.97,1.86,19.34,3.29l1.1,21.94Z"/>
  </g>
</svg>